<svg width="32" height="32" viewBox="0 0 32 32" fill="none" xmlns="http://www.w3.org/2000/svg">
<g clip-path="url(#clip0_5_4)">
<path d="M30.1425 24.9003C30.1425 25.5954 29.8663 26.2621 29.3748 26.7537C28.8832 27.2452 28.2165 27.5214 27.5214 27.5214H3.93163C3.23648 27.5214 2.56979 27.2452 2.07824 26.7537C1.5867 26.2621 1.31055 25.5954 1.31055 24.9003V10.4843C1.31055 9.78918 1.5867 9.1225 2.07824 8.63095C2.56979 8.1394 3.23648 7.86325 3.93163 7.86325H9.1738L11.7949 3.93163H19.6581L22.2792 7.86325H27.5214C28.2165 7.86325 28.8832 8.1394 29.3748 8.63095C29.8663 9.1225 30.1425 9.78918 30.1425 10.4843V24.9003Z" stroke="#F6DDF7" stroke-width="2.62108" stroke-linecap="round" stroke-linejoin="round"/>
<path d="M15.7265 22.2792C18.6216 22.2792 20.9686 19.9322 20.9686 17.037C20.9686 14.1419 18.6216 11.7949 15.7265 11.7949C12.8313 11.7949 10.4843 14.1419 10.4843 17.037C10.4843 19.9322 12.8313 22.2792 15.7265 22.2792Z" stroke="#F6DDF7" stroke-width="2.62108" stroke-linecap="round" stroke-linejoin="round"/>
</g>
<defs>
<clipPath id="clip0_5_4">
<rect width="31.453" height="31.453" fill="white"/>
</clipPath>
</defs>
</svg>
