<svg width="60" height="60" viewBox="0 0 60 60" fill="none" xmlns="http://www.w3.org/2000/svg">
<path d="M19.65 5H40.35L55 19.65V40.35L40.35 55H19.65L4.99998 40.35V19.65L19.65 5Z" stroke="#5A3C5A" stroke-width="2.4" stroke-linecap="round" stroke-linejoin="round"/>
<g clip-path="url(#clip0_2_13)">
<path d="M35.6 43.1V38.2625C35.6469 37.6664 35.5664 37.0672 35.3638 36.5047C35.1612 35.9422 34.8412 35.4293 34.425 35C38.35 34.5625 42.475 33.075 42.475 26.25C42.4747 24.5048 41.8034 22.8265 40.6 21.5625C41.1698 20.0356 41.1295 18.3479 40.4875 16.85C40.4875 16.85 39.0125 16.4125 35.6 18.7C32.735 17.9235 29.715 17.9235 26.85 18.7C23.4375 16.4125 21.9625 16.85 21.9625 16.85C21.3205 18.3479 21.2802 20.0356 21.85 21.5625C20.6377 22.8359 19.9657 24.5293 19.975 26.2875C19.975 33.0625 24.1 34.55 28.025 35.0375C27.6137 35.4625 27.2966 35.9692 27.0941 36.5249C26.8917 37.0805 26.8085 37.6726 26.85 38.2625V43.1M26.85 39.35C20.6 41.225 20.6 36.225 18.1 35.6L26.85 39.35Z" stroke="#FD8FFF" stroke-width="2.4" stroke-linecap="round" stroke-linejoin="round"/>
</g>
<defs>
<clipPath id="clip0_2_13">
<rect width="30" height="30" fill="white" transform="translate(15.6 15.6)"/>
</clipPath>
</defs>
</svg>
