<svg width="32" height="32" viewBox="0 0 32 32" fill="none" xmlns="http://www.w3.org/2000/svg">
<path d="M22.2792 2.62108H9.1738C5.55484 2.62108 2.62109 5.55483 2.62109 9.17379V22.2792C2.62109 25.8982 5.55484 28.8319 9.1738 28.8319H22.2792C25.8982 28.8319 28.8319 25.8982 28.8319 22.2792V9.17379C28.8319 5.55483 25.8982 2.62108 22.2792 2.62108Z" stroke="#F6DDF7" stroke-width="2.62108" stroke-linecap="round" stroke-linejoin="round"/>
<path d="M20.9687 14.9009C21.1304 15.9916 20.9441 17.1055 20.4363 18.0842C19.9284 19.0629 19.1249 19.8566 18.14 20.3523C17.1551 20.848 16.039 21.0206 14.9504 20.8454C13.8617 20.6702 12.8561 20.1562 12.0764 19.3766C11.2967 18.5969 10.7828 17.5912 10.6076 16.5026C10.4324 15.414 10.605 14.2979 11.1007 13.313C11.5964 12.3281 12.3901 11.5246 13.3688 11.0167C14.3475 10.5089 15.4614 10.3226 16.5521 10.4843C17.6647 10.6493 18.6947 11.1677 19.49 11.963C20.2853 12.7583 20.8037 13.7883 20.9687 14.9009Z" stroke="#F6DDF7" stroke-width="2.62108" stroke-linecap="round" stroke-linejoin="round"/>
<path d="M22.9345 8.51852H22.9468" stroke="#F6DDF7" stroke-width="2.62108" stroke-linecap="round" stroke-linejoin="round"/>
</svg>
